<?xml version="1.0" encoding="utf-8"?>
<!-- Generator: Adobe Illustrator 19.2.0, SVG Export Plug-In . SVG Version: 6.00 Build 0)  -->
<svg version="1.1" id="Слой_1" xmlns="http://www.w3.org/2000/svg" xmlns:xlink="http://www.w3.org/1999/xlink" x="0px" y="0px"
	 viewBox="0 0 149.1 37.7" enable-background="new 0 0 149.1 37.7" xml:space="preserve">
<path fill="#e75a40" d="M25.3,22.4V21c0-1.5-1-2.5-2.5-3l-3.3-1.1c-0.2-0.1-0.6-0.3-0.6-0.9v-0.2c0-0.9,0.7-1.2,1.6-1.2
	c0.9,0,1.5,0.3,1.5,1.2v0.3c0,0.4,0.1,0.6,0.6,0.6h2.1c0.4,0,0.6-0.2,0.6-0.6v-0.7c0-1.7-1.1-3.4-4.8-3.4c-3.7,0-4.7,1.7-4.7,3.4
	v1.2c0,1.2,0.8,2.3,1.8,2.6l2.9,1.1c0.8,0.3,1.7,0.6,1.7,1.3v0.4c0,0.9-0.8,1.3-1.8,1.3c-1,0-1.7-0.3-1.7-1.3V21
	c0-0.4-0.1-0.6-0.6-0.6H16c-0.4,0-0.6,0.2-0.6,0.6v1.3c0,1.7,1.2,3.4,5,3.4C24.1,25.8,25.3,24.1,25.3,22.4 M63.9,25v-1.5
	c0-0.4-0.2-0.6-0.6-0.6H59v-3h3.8c0.4,0,0.6-0.2,0.6-0.6v-1.4c0-0.4-0.2-0.6-0.6-0.6H59v-2.6h4.1c0.4,0,0.6-0.2,0.6-0.6v-1.5
	c0-0.4-0.2-0.6-0.6-0.6h-6.8c-0.4,0-0.6,0.2-0.6,0.6V25c0,0.4,0.2,0.6,0.6,0.6h7C63.7,25.6,63.9,25.4,63.9,25 M77.3,25v-1.5
	c0-0.4-0.2-0.6-0.6-0.6h-3.9V12.7c0-0.4-0.1-0.6-0.6-0.6h-2.1c-0.4,0-0.6,0.2-0.6,0.6V25c0,0.4,0.1,0.6,0.5,0.6h6.7
	C77.1,25.6,77.3,25.4,77.3,25 M127.2,14.8h1.8c1,0,1.8,0.4,1.8,1.3v5.6c0,0.9-0.8,1.3-1.8,1.3h-1.8V14.8z M123.9,12.7V25
	c0,0.4,0.1,0.6,0.5,0.6h4.6c3.7,0,5.1-1.7,5.1-3.4v-6.7c0-1.7-1.3-3.4-5.1-3.4h-4.5C124.1,12.1,123.9,12.3,123.9,12.7 M96.8,12.7V25
	c0,0.4,0.2,0.6,0.6,0.6h7c0.4,0,0.6-0.2,0.6-0.6v-1.5c0-0.4-0.2-0.6-0.6-0.6h-4.3v-3h3.8c0.4,0,0.6-0.2,0.6-0.6v-1.4
	c0-0.4-0.2-0.6-0.6-0.6h-3.8v-2.6h4.1c0.4,0,0.6-0.2,0.6-0.6v-1.5c0-0.4-0.2-0.6-0.6-0.6h-6.8C97,12.1,96.8,12.3,96.8,12.7
	 M145.3,33.7H86.1V20h4.2c0.4,0,0.6-0.2,0.6-0.6v-1.5c0-0.4-0.2-0.6-0.6-0.6h-4.2v-2.6h4.5c0.4,0,0.6-0.2,0.6-0.6v-1.5
	c0-0.4-0.2-0.6-0.6-0.6h-7.2c-0.4,0-0.6,0.2-0.6,0.6v21H34.2V21h1.6c3.7,0,5-1.7,5-3.4v-2.1c0-1.7-1.3-3.4-5-3.4h-4.3
	c-0.4,0-0.6,0.2-0.6,0.6v21H4.1V4h42.3V25c0,0.4,0.2,0.6,0.6,0.6h2.1c0.4,0,0.6-0.2,0.6-0.6V4h60.9v21c0,0.4,0.1,0.6,0.5,0.6h6.7
	c0.4,0,0.6-0.2,0.6-0.6v-1.5c0-0.4-0.2-0.6-0.6-0.6h-3.9V4h31.4V33.7z M34.2,14.8h1.6c1,0,1.8,0.4,1.8,1.3v1c0,0.9-0.8,1.3-1.8,1.3
	h-1.6V14.8z M149.3,0H0.2v37.7h149.1V0z"/>
</svg>
